#!OML:ASF F:\VICON\USERDATA\INSTALL\rory3\rory3.ASF
:FULLY-SPECIFIED
:DEGREES
529
root -11.1836 17.7243 10.1733 -181.443 -0.672276 173.044
lowerback 12.3222 0.117132 -4.32974
upperback 0.347142 -0.55492 -0.00500452
thorax -6.52018 -0.179115 2.54355
lowerneck -22.6469 -4.18379 -11.317
upperneck 29.6978 -2.62188 6.13912
head 14.2553 -1.15595 4.04359
rclavicle 5.96354e-016 -4.29375e-014
rhumerus -36.3893 -19.3366 -77.1505
rradius 35.5261
rwrist 6.15294
rhand -16.7563 9.92091
rfingers 7.12502
rthumb 9.47048 -19.8463
lclavicle 5.96354e-016 -4.29375e-014
lhumerus -30.1927 6.00069 77.8139
lradius 32.8504
lwrist -2.42445
lhand -25.0675 22.0048
lfingers 7.12502
lthumb 1.44633 51.9796
rfemur -10.7567 1.53734 19.4618
rtibia 42.8296
rfoot -18.3402 5.07992
rtoes 10.2659
lfemur -5.15235 -1.07877 -23.8182
ltibia 30.6721
lfoot -10.6554 -12.7242
ltoes -14.168
530
root -11.2328 17.7311 10.1732 -181.529 -1.31879 172.869
lowerback 12.3612 -0.0371605 -4.29078
upperback 0.414105 -0.768045 -0.113252
thorax -6.45669 -0.291311 2.44468
lowerneck -22.743 -4.17434 -11.3988
upperneck 29.9015 -2.54097 6.14103
head 14.3596 -1.12578 4.08483
rclavicle 9.93923e-016 1.59028e-015
rhumerus -36.4465 -18.8594 -77.5152
rradius 35.5023
rwrist 5.99954
rhand -16.7408 9.99614
rfingers 7.12502
rthumb 9.48544 -19.7704
lclavicle 9.93923e-016 1.59028e-015
lhumerus -30.1742 5.86378 77.9305
lradius 32.9983
lwrist -2.39316
lhand -25.0425 22.0494
lfingers 7.12502
lthumb 1.47049 52.0241
rfemur -10.4175 1.51182 19.3302
rtibia 42.4628
rfoot -19.0962 2.76707
rtoes 7.27413
lfemur -5.16343 -0.922505 -23.9121
ltibia 30.6957
lfoot -9.95132 -14.1878
ltoes -10.9151
531
root -11.2858 17.7359 10.1763 -181.626 -2.00195 172.91
lowerback 12.4682 -0.206354 -3.91578
upperback 0.457823 -0.954636 -0.217503
thorax -6.46361 -0.397663 2.15686
lowerneck -22.7068 -2.88934 -11.985
upperneck 29.7775 -3.00402 6.60658
head 14.3076 -2.17828 4.07358
rclavicle -1.47598e-014 0
rhumerus -36.5553 -18.4615 -77.8463
rradius 35.4394
rwrist 6.21803
rhand -16.4908 10.1939
rfingers 7.12502
rthumb 9.72666 -19.5615
lclavicle -1.47598e-014 0
lhumerus -30.1408 5.68531 78.0328
lradius 33.0132
lwrist -2.44688
lhand -25.3612 21.8943
lfingers 7.12502
lthumb 1.16268 51.8709
rfemur -10.0789 1.43054 19.3037
rtibia 42.0935
rfoot -19.2114 2.22843
rtoes 7.96231
lfemur -5.20923 -0.704269 -23.7641
ltibia 30.7909
lfoot -9.45647 -15.5803
ltoes -8.53953
532
root -11.3414 17.7375 10.1804 -181.673 -2.69689 172.76
lowerback 12.4691 -0.359834 -3.72536
upperback 0.527572 -1.1444 -0.351923
thorax -6.38378 -0.503229 1.94032
lowerneck -22.6225 -2.96653 -12.0369
upperneck 29.6998 -3.06127 6.49877
head 14.2629 -2.21922 4.02438
rclavicle -1.38652e-014 4.77083e-015
rhumerus -36.4688 -18.0201 -78.2095
rradius 35.2116
rwrist 6.17241
rhand -16.4087 10.8544
rfingers 7.12502
rthumb 9.80588 -18.8973
lclavicle -1.38652e-014 4.77083e-015
lhumerus -30.0467 5.49185 78.1943
lradius 33.0431
lwrist -2.66815
lhand -25.2503 21.6546
lfingers 7.12502
lthumb 1.26982 51.6306
rfemur -9.75896 1.22251 18.9294
rtibia 41.7588
rfoot -19.043 2.6759
rtoes 9.6793
lfemur -5.36722 -0.371363 -23.8287
ltibia 31.0252
lfoot -9.10514 -16.8628
ltoes -7.05857
533
root -11.3967 17.7363 10.1854 -181.732 -3.39058 172.565
lowerback 12.4921 -0.481498 -3.62755
upperback 0.584721 -1.3039 -0.45825
thorax -6.33106 -0.589661 1.80089
lowerneck -22.5146 -3.0029 -12.0541
upperneck 29.7104 -3.07624 6.33979
head 14.2449 -2.2535 3.95763
rclavicle 6.80837e-015 3.97569e-014
rhumerus -36.5316 -17.3605 -78.6145
rradius 35.2878
rwrist 5.5605
rhand -16.5475 11.5908
rfingers 7.12502
rthumb 9.67194 -18.1672
lclavicle 6.80837e-015 3.97569e-014
lhumerus -30.0483 5.24668 78.4383
lradius 33.1492
lwrist -2.81189
lhand -25.1934 21.3557
lfingers 7.12502
lthumb 1.32474 51.3313
rfemur -9.38655 1.07776 18.4148
rtibia 41.4679
rfoot -19.061 2.90211
rtoes 9.15494
lfemur -5.56535 -0.0519022 -23.9396
ltibia 31.3651
lfoot -8.72193 -17.9913
ltoes -5.7882
534
root -11.4475 17.735 10.195 -181.785 -4.04421 172.67
lowerback 12.6415 -0.626815 -3.25522
upperback 0.564039 -1.45237 -0.498315
thorax -6.43795 -0.671059 1.57808
lowerneck -22.3755 -2.99318 -11.9622
upperneck 29.7571 -3.05865 6.11707
head 14.2282 -2.2748 3.85227
rclavicle -4.22417e-015 -3.97569e-015
rhumerus -36.7163 -16.5973 -79.0187
rradius 35.3662
rwrist 5.12323
rhand -16.8716 12.2065
rfingers 7.12502
rthumb 9.35926 -17.5658
lclavicle -4.22417e-015 -3.97569e-015
lhumerus -30.0542 5.17074 78.5876
lradius 33.123
lwrist -3.06923
lhand -25.0764 21.1903
lfingers 7.12502
lthumb 1.43779 51.1652
rfemur -9.0235 1.17577 18.2046
rtibia 41.1675
rfoot -19.3605 2.69145
rtoes 6.52699
lfemur -5.82411 0.307332 -23.6658
ltibia 31.788
lfoot -8.52128 -19.1355
ltoes -6.23989
535
root -11.4979 17.7367 10.2023 -181.804 -4.62546 172.901
lowerback 12.7121 -0.773867 -2.82702
upperback 0.540642 -1.5824 -0.45643
thorax -6.50539 -0.743706 1.40565
lowerneck -22.2346 -3.00316 -11.9844
upperneck 29.6929 -3.01515 5.92527
head 14.1634 -2.28464 3.78233
rclavicle -4.96962e-016 1.03368e-014
rhumerus -36.7778 -15.9128 -79.2754
rradius 35.203
rwrist 5.17245
rhand -17.2868 12.8851
rfingers 7.12502
rthumb 8.95857 -16.9047
lclavicle -4.96962e-016 1.03368e-014
lhumerus -30.0235 5.38003 78.7466
lradius 32.9852
lwrist -3.5184
lhand -25.0951 20.7492
lfingers 7.12502
lthumb 1.41968 50.7243
rfemur -8.68055 1.24614 18.0862
rtibia 40.7891
rfoot -19.7735 2.83964
rtoes 3.59526
lfemur -6.15881 0.73173 -23.2426
ltibia 32.3085
lfoot -8.42352 -20.2092
ltoes -10.8424
536
root -11.5492 17.7359 10.2085 -181.798 -5.21854 173.008
lowerback 12.7661 -0.896901 -2.56403
upperback 0.514548 -1.7033 -0.407235
thorax -6.5638 -0.807373 1.33243
lowerneck -22.2197 -3.04861 -12.2061
upperneck 29.765 -3.02117 5.96012
head 14.1987 -2.31356 3.83485
rclavicle -4.96962e-015 6.36111e-015
rhumerus -36.891 -15.3139 -79.3863
rradius 35.1374
rwrist 5.30309
rhand -17.3696 13.3576
rfingers 7.12502
rthumb 8.87874 -16.4356
lclavicle -4.96962e-015 6.36111e-015
lhumerus -30.0462 5.52838 79.0103
lradius 32.908
lwrist -3.88897
lhand -25.0869 20.4916
lfingers 7.12502
lthumb 1.42762 50.4666
rfemur -8.31675 1.31459 17.7859
rtibia 40.313
rfoot -19.9942 3.67414
rtoes 1.88767
lfemur -6.55799 1.1302 -22.9548
ltibia 32.8961
lfoot -8.0247 -21.2009
ltoes -12.4071
537
root -11.5979 17.7352 10.2146 -181.771 -5.79353 173.158
lowerback 12.7915 -0.977625 -2.31467
upperback 0.473659 -1.76654 -0.34139
thorax -6.62397 -0.841661 1.27374
lowerneck -22.1693 -3.13363 -12.3851
upperneck 29.8607 -3.13045 6.03642
head 14.2486 -2.37951 3.87831
rclavicle 1.87355e-014 7.95139e-015
rhumerus -37.17 -14.6932 -79.4825
rradius 35.3569
rwrist 5.33843
rhand -17.5628 13.3761
rfingers 7.12502
rthumb 8.69229 -16.4249
lclavicle 1.87355e-014 7.95139e-015
lhumerus -30.1366 5.56985 79.3303
lradius 32.9483
lwrist -4.16097
lhand -25.1764 20.4728
lfingers 7.12502
lthumb 1.34118 50.4483
rfemur -7.92487 1.44475 17.514
rtibia 39.7539
rfoot -20.0867 4.91868
rtoes 1.82071
lfemur -7.01779 1.56953 -22.5846
ltibia 33.5097
lfoot -7.82934 -22.1138
ltoes -14.8221
